<svg xmlns="http://www.w3.org/2000/svg" width="256" height="256" version="1.2" viewBox="0 0 323 323">
  <defs>
    <linearGradient id="a">
      <stop offset="0" stop-color="#ec7211" />
      <stop offset="1" stop-color="#f90" />
    </linearGradient>
  </defs>
  <path d="M162 100h151v115H162z" style="fill:#fff"/>
  <path d="M187.5 196h-13.8v-80.4h30q11.8 0 18.9 6.5 7.2 6.4 7.2 17.3 0 7.9-4 13.6-4 5.6-11.6 8.7l20.7 34.3h-14.8l-18.8-31.9h-13.8zm0-69.5v26.7H202q13.9 0 13.9-13.3 0-13.4-13.6-13.4zm89.8 69.5h-14.1v-68.8H238v-11.6h64.5v11.6h-25.2z"/>
  <path d="M187.5 196h-13.8v-80.4h30q11.8 0 18.9 6.5 7.2 6.4 7.2 17.3 0 7.9-4 13.6-4 5.6-11.6 8.7l20.7 34.3h-14.8l-18.8-31.9h-13.8zm0-69.5v26.7H202q13.9 0 13.9-13.3 0-13.4-13.6-13.4zm89.8 69.5h-14.1v-68.8H238v-11.6h64.5v11.6h-25.2z"/>
  <path fill="url(#a)" fill-rule="evenodd" d="M11 100h151.3v115H11zm72 78.5H52.2L64.4 116H42.7L27 196.3h52.5zm63.4-.3h-30.9l12.2-62.6H106L90.3 196h52.6z" />
</svg>