<svg width="200" viewBox="15 17.8 291.5 115" xmlns="http://www.w3.org/2000/svg">
  <defs>
    <linearGradient id="a">
      <stop offset="0" stop-color="#ec7211" />
      <stop offset="1" stop-color="#f90" />
    </linearGradient>
  </defs>
  <path
    d="M191.5 113.8h-13.8V33.4h30c7.8 0 14.1 2.2 18.9 6.5a22 22 0 0 1 7.2 17.3 23 23 0 0 1-4 13.6 25.7 25.7 0 0 1-11.6 8.7l20.7 34.3H224L205.3 82h-13.8v32Zm0-69.5V71H206c9.2 0 13.9-4.4 13.9-13.3 0-9-4.6-13.4-13.6-13.4h-14.8Zm89.8 69.5h-14.1V45H242V33.4h64.5V45h-25.2v68.8Z" />
  <path fill-rule="evenodd" fill="url(#a)"
    d="M15 17.8h151.3v115H15v-115Zm11 95.4h57.7l4.7-20.7H58l3.6-14.9h-5l10.6-45.8H39.7L29.2 77.6h5L26 113.2Zm67 .3h57.8l4.7-20.7h-30.3l3.6-14.9h-5.1l10.6-45.8h-27.4L96.4 78h5L93 113.5Z" />
</svg>