<svg version="1.2" xmlns="http://www.w3.org/2000/svg" height="80px" viewBox="0 0 256 128">


  <linearGradient id="a" x2="1" href="#a">
    <stop stop-color="#ec7211" />
    <stop offset="1" stop-color="#f90" />
  </linearGradient>


  <path fill="#232f3e" d="m128.4 18.3h119.7v91.1h-119.7z" />
  <path fill="#fff"
    d="m148.6 94h-11v-63.7h23.9q9.3 0 14.9 5.1 5.7 5.1 5.7 13.7 0 6.3-3.2 10.8-3.1 4.5-9.2 6.9l16.5 27.2h-11.8l-14.9-25.3h-10.9zm0-55.1v21.2h11.5q11 0 11-10.6 0-10.6-10.7-10.6zm71.1 55.1h-11.2v-54.5h-20v-9.2h51.2v9.2h-20z" />
  <path style="fill:url(#a)" d="m8.7 18.3h119.9v91.1h-119.9z" />
  <path fill="#fff"
    d="m113.2 94.3h-41.6l12.4-63.7h17.2l-9.7 49.6h24.5zm-50 0h-41.7l12.5-63.7h17.2l-9.7 49.5h24.5z" />
</svg>